<svg xmlns="http://www.w3.org/2000/svg" viewBox="0 0 600 600" role="img" aria-labelledby="title desc">
  <title id="title">Invite photo placeholder</title>
  <desc id="desc">Replace this file with your own photo before deployment.</desc>
  <rect width="600" height="600" rx="56" fill="#ffe9ef"/>
  <circle cx="466" cy="92" r="68" fill="#d9f5ee"/>
  <circle cx="104" cy="502" r="86" fill="#eadfff"/>
  <path d="M145 436c31-92 85-138 160-138s129 46 160 138" fill="#ff8eb0"/>
  <circle cx="300" cy="226" r="104" fill="#9f7462"/>
  <path d="M210 230c20 58 50 86 90 86s70-28 90-86v-56H210v56z" fill="#ffd7c9"/>
  <path d="M206 188c17-76 69-114 156-114 58 18 93 57 105 118-41-18-91-28-151-28-45 0-82 8-110 24z" fill="#5a322b"/>
  <circle cx="266" cy="224" r="10" fill="#2d1720"/>
  <circle cx="337" cy="224" r="10" fill="#2d1720"/>
  <path d="M269 269c21 16 43 16 65 0" fill="none" stroke="#2d1720" stroke-width="12" stroke-linecap="round"/>
  <text x="300" y="514" text-anchor="middle" font-family="Arial, sans-serif" font-size="30" font-weight="700" fill="#8f4b5e">replace with your photo</text>
</svg>
